<?xml version="1.0" encoding="utf-8"?>
<!-- Svg Vector Icons : http://www.onlinewebfonts.com/icon -->
<!DOCTYPE svg PUBLIC "-//W3C//DTD SVG 1.1//EN" "http://www.w3.org/Graphics/SVG/1.1/DTD/svg11.dtd">
<svg version="1.1" xmlns="http://www.w3.org/2000/svg" xmlns:xlink="http://www.w3.org/1999/xlink" x="0px" y="0px" viewBox="0 0 1000 1000" enable-background="new 0 0 1000 1000" xml:space="preserve">
<metadata> Svg Vector Icons : http://www.onlinewebfonts.com/icon </metadata>
<g><path d="M500,10C298.6,10,133,175.6,133,381.4c0,67.1,17.9,134.2,49.2,187.9C244.9,676.8,500,990,500,990S755,681.2,817.7,569.4c31.3-53.7,49.2-120.8,49.2-187.9C871.4,175.6,705.8,10,500,10z M500,573.8c-107.4,0-192.4-85-192.4-192.4c0-107.4,85-196.9,192.4-196.9c107.4,0,192.4,85,192.4,192.4C692.4,484.3,611.8,573.8,500,573.8z"/></g>
</svg>